<svg xmlns="http://www.w3.org/2000/svg" fill="none" viewBox="0 0 42 42"><path fill="url(#a)" d="M41.46 20.05c.01-.86-9.2-1.67-20.55-1.81S.32 18.69.3 19.56c0 .86 9.2 1.67 20.56 1.8 11.36.14 20.58-.45 20.59-1.3Z"/><path fill="url(#b)" d="M20.8 41.12c.82 0 1.5-9.18 1.5-20.5S21.61.12 20.8.12c-.84 0-1.5 9.18-1.5 20.5s.66 20.5 1.5 20.5Z"/><path fill="url(#c)" d="M28.56 20.1a7.7 7.7 0 0 0-7.5-7.89 7.7 7.7 0 0 0-7.67 7.72 7.7 7.7 0 0 0 7.49 7.9 7.7 7.7 0 0 0 7.68-7.72Z"/><path fill="url(#d)" d="M26.25 20.33a5.02 5.02 0 0 0-4.88-5.15 5.02 5.02 0 0 0-5.01 5.03 5.02 5.02 0 0 0 4.88 5.16 5.02 5.02 0 0 0 5.01-5.04Z"/><defs><radialGradient id="a" cx="0" cy="0" r="1" gradientTransform="matrix(-.02 1.56 -20.56 -.26 21.93 19.8)" gradientUnits="userSpaceOnUse"><stop stop-color="#fff"/><stop offset="1" stop-color="#FFF" stop-opacity="0"/><stop offset="1" stop-opacity="0"/></radialGradient><radialGradient id="b" cx="0" cy="0" r="1" gradientTransform="matrix(-1.5 0 .01 -20.49 20.8 21.66)" gradientUnits="userSpaceOnUse"><stop stop-color="#fff"/><stop offset="1" stop-color="#FFF" stop-opacity="0"/><stop offset="1" stop-opacity="0"/></radialGradient><radialGradient id="c" cx="0" cy="0" r="1" gradientTransform="matrix(-.1 7.8 -7.58 -.1 21.36 19.97)" gradientUnits="userSpaceOnUse"><stop stop-color="#fff"/><stop offset="1" stop-color="#FFF" stop-opacity="0"/><stop offset="1" stop-opacity="0"/></radialGradient><radialGradient id="d" cx="0" cy="0" r="1" gradientTransform="matrix(-.06 5.1 -4.95 -.06 21.55 20.24)" gradientUnits="userSpaceOnUse"><stop stop-color="#fff"/><stop offset="1" stop-color="#FFF" stop-opacity="0"/><stop offset="1" stop-opacity="0"/></radialGradient></defs></svg>